<svg width="14" height="16" viewBox="0 0 14 16" fill="none" xmlns="http://www.w3.org/2000/svg">
<path d="M7.49011 7.23631L2.15178 8.14904C2.09041 8.15955 2.03281 8.18646 1.98479 8.22706C1.93676 8.26765 1.9 8.32051 1.8782 8.38031L0.0375707 13.4407C-0.1382 13.9062 0.335956 14.3498 0.77113 14.1258L8.36329 10.2305C8.2774 9.69431 8.36098 9.14398 8.6018 8.66003C8.84263 8.17608 9.22806 7.78391 9.7017 7.5409C10.1753 7.29789 10.7123 7.21679 11.2341 7.30946C11.7559 7.40213 12.2351 7.66372 12.6016 8.05595L13.5287 7.58031C13.6169 7.53496 13.691 7.46533 13.7428 7.37921C13.7946 7.29309 13.8221 7.19388 13.8221 7.09267C13.8221 6.99146 13.7946 6.89225 13.7428 6.80613C13.691 6.72001 13.6169 6.65038 13.5287 6.60503L0.77113 0.0595336C0.335956 -0.163741 -0.1382 0.279899 0.0375707 0.744629L1.87891 5.80503C1.90071 5.86483 1.93747 5.91769 1.9855 5.95828C2.03352 5.99888 2.09111 6.02579 2.15249 6.0363L7.49081 6.94903C7.52412 6.95449 7.55443 6.97194 7.57632 6.99827C7.5982 7.0246 7.61022 7.05807 7.61022 7.09267C7.61022 7.12727 7.5982 7.16074 7.57632 7.18707C7.55443 7.2134 7.52412 7.23085 7.49081 7.23631M12.5825 9.81814C12.5825 10.3004 12.3958 10.7628 12.0635 11.1038C11.7312 11.4448 11.2805 11.6363 10.8106 11.6363C10.3407 11.6363 9.89 11.4448 9.5577 11.1038C9.22541 10.7628 9.03873 10.3004 9.03873 9.81814C9.03873 9.33593 9.22541 8.87346 9.5577 8.53249C9.89 8.19151 10.3407 7.99995 10.8106 7.99995C11.2805 7.99995 11.7312 8.19151 12.0635 8.53249C12.3958 8.87346 12.5825 9.33593 12.5825 9.81814ZM14 13.7273C14 14.8589 13.0885 16 10.8106 16C8.53268 16 7.62123 14.8633 7.62123 13.7273V13.6523C7.62123 12.9396 8.18398 12.3636 8.87784 12.3636H12.7434C13.438 12.3636 14 12.9403 14 13.6523V13.7273Z" fill="black"/>
</svg>
