<svg width="21" height="21" viewBox="0 0 21 21" fill="none" xmlns="http://www.w3.org/2000/svg">
<path d="M10 2H3C2.46957 2 1.96086 2.21071 1.58579 2.58579C1.21071 2.96086 1 3.46957 1 4V18C1 18.5304 1.21071 19.0391 1.58579 19.4142C1.96086 19.7893 2.46957 20 3 20H17C17.5304 20 18.0391 19.7893 18.4142 19.4142C18.7893 19.0391 19 18.5304 19 18V11" stroke="black" stroke-width="2" stroke-linecap="round" stroke-linejoin="round"/>
<path d="M16.379 1.62132C16.7768 1.2235 17.3164 1 17.879 1C18.4416 1 18.9812 1.2235 19.379 1.62132C19.7768 2.01914 20.0003 2.55871 20.0003 3.12132C20.0003 3.68393 19.7768 4.2235 19.379 4.62132L10.366 13.6353C10.1285 13.8726 9.83521 14.0462 9.513 14.1403L6.64 14.9803C6.55395 15.0054 6.46274 15.0069 6.37591 14.9847C6.28908 14.9624 6.20983 14.9173 6.14645 14.8539C6.08307 14.7905 6.03789 14.7112 6.01564 14.6244C5.9934 14.5376 5.9949 14.4464 6.02 14.3603L6.86 11.4873C6.95453 11.1654 7.12853 10.8724 7.366 10.6353L16.379 1.62132Z" stroke="black" stroke-width="2" stroke-linecap="round" stroke-linejoin="round"/>
</svg>
