<svg width="11" height="12" viewBox="0 0 11 12" fill="none" xmlns="http://www.w3.org/2000/svg">
<path d="M7.56221 11.2518C7.58971 11.4518 7.52097 11.6651 7.36287 11.8051C7.29927 11.8669 7.22373 11.9159 7.14058 11.9493C7.05742 11.9828 6.96827 12 6.87825 12C6.78822 12 6.69907 11.9828 6.61592 11.9493C6.53276 11.9159 6.45722 11.8669 6.39363 11.8051L3.63713 9.13209C3.5622 9.061 3.50523 8.97407 3.47065 8.8781C3.43607 8.78213 3.42482 8.67971 3.43779 8.57884V5.16597L0.145116 1.07985C0.0334875 0.940892 -0.0168817 0.764735 0.005015 0.589873C0.0269117 0.415012 0.119294 0.255663 0.261975 0.146647C0.392582 0.0533261 0.536937 0 0.688166 0H10.3118C10.4631 0 10.6074 0.0533261 10.738 0.146647C10.8807 0.255663 10.9731 0.415012 10.995 0.589873C11.0169 0.764735 10.9665 0.940892 10.8549 1.07985L7.56221 5.16597V11.2518ZM2.09047 1.33315L4.81259 4.70603V8.38553L6.1874 9.71868V4.69936L8.90953 1.33315H2.09047Z" fill="black"/>
</svg>
