<svg width="18" height="18" viewBox="0 0 18 18" fill="none" xmlns="http://www.w3.org/2000/svg">
<path d="M17.2481 0H7.85135C7.65198 0 7.46077 0.079201 7.31979 0.22018C7.17881 0.361158 7.09961 0.552366 7.09961 0.75174V6.38979C7.09961 6.48948 7.13921 6.58508 7.2097 6.65557C7.28019 6.72606 7.37579 6.76566 7.47548 6.76566H12.6099C13.2031 6.75553 13.7782 6.96988 14.2201 7.36576C14.662 7.76165 14.938 8.30986 14.9929 8.9006C15.0092 9.20672 14.963 9.51297 14.857 9.80062C14.751 10.0883 14.5875 10.3513 14.3764 10.5736C14.1654 10.7959 13.9112 10.9729 13.6294 11.0937C13.3476 11.2145 13.0442 11.2765 12.7377 11.2761H7.47548C7.37579 11.2761 7.28019 11.3157 7.2097 11.3862C7.13921 11.4567 7.09961 11.5523 7.09961 11.652V16.5383C7.09961 16.7377 7.17881 16.9289 7.31979 17.0698C7.46077 17.2108 7.65198 17.29 7.85135 17.29H17.2481C17.4475 17.29 17.6387 17.2108 17.7797 17.0698C17.9206 16.9289 17.9998 16.7377 17.9998 16.5383V0.75174C17.9998 0.552366 17.9206 0.361158 17.7797 0.22018C17.6387 0.079201 17.4475 0 17.2481 0Z" fill="black"/>
<path d="M12.7376 10.1484C13.0367 10.1484 13.3235 10.0296 13.535 9.81818C13.7465 9.60671 13.8653 9.3199 13.8653 9.02084C13.8653 8.72178 13.7465 8.43497 13.535 8.2235C13.3235 8.01203 13.0367 7.89323 12.7376 7.89323H5.22025V6.01388C5.21985 5.87219 5.17941 5.73349 5.10359 5.61379C5.02778 5.49408 4.91968 5.39824 4.79176 5.33731C4.66968 5.2845 4.53577 5.26502 4.4037 5.28087C4.27163 5.29672 4.14613 5.34732 4.04002 5.42752L0.281316 8.43448C0.193518 8.50492 0.122658 8.59418 0.0739682 8.69566C0.025278 8.79715 0 8.90828 0 9.02084C0 9.1334 0.025278 9.24453 0.0739682 9.34601C0.122658 9.4475 0.193518 9.53676 0.281316 9.6072L4.04002 12.6142C4.15078 12.7029 4.28439 12.7584 4.4254 12.7744C4.56642 12.7904 4.70907 12.7661 4.83686 12.7044C4.95637 12.6373 5.05526 12.5388 5.12283 12.4195C5.19041 12.3003 5.22409 12.1648 5.22025 12.0278V10.1484H12.7376Z" fill="black"/>
</svg>
