<svg width="16" height="17" viewBox="0 0 16 17" fill="none" xmlns="http://www.w3.org/2000/svg">
<path d="M6.04 0.428742C6.36461 0.151857 6.77548 0 7.2 0C7.62452 0 8.03539 0.151857 8.36 0.428742L13.76 5.03974C14.1664 5.38546 14.4 5.89474 14.4 6.43235V8.13425C14.0107 7.73213 13.5119 7.45647 12.9672 7.34244C12.4224 7.22841 11.8565 7.28117 11.3415 7.49399C10.8265 7.70681 10.3859 8.07005 10.0757 8.53738C9.76552 9.0047 9.59992 9.55494 9.6 10.1179V10.5227C9.5088 10.0693 9.0984 9.72604 8.6264 9.71308H5.7736C5.51299 9.72005 5.26536 9.82975 5.0835 10.0188C4.90163 10.2078 4.79991 10.4613 4.8 10.7252V13.9662C4.8 14.342 4.6525 14.7024 4.38995 14.9681C4.1274 15.2338 3.7713 15.3831 3.4 15.3831H1.4C1.0287 15.3831 0.672602 15.2338 0.410051 14.9681C0.1475 14.7024 0 14.342 0 13.9662V6.43154C0 5.89474 0.2336 5.38547 0.64 5.03893L6.04 0.428742ZM14.4 10.1179C14.4 10.6547 14.1893 11.1696 13.8142 11.5492C13.4391 11.9288 12.9304 12.1421 12.4 12.1421C11.8696 12.1421 11.3609 11.9288 10.9858 11.5492C10.6107 11.1696 10.4 10.6547 10.4 10.1179C10.4 9.58108 10.6107 9.06623 10.9858 8.68663C11.3609 8.30703 11.8696 8.09377 12.4 8.09377C12.9304 8.09377 13.4391 8.30703 13.8142 8.68663C14.1893 9.06623 14.4 9.58108 14.4 10.1179ZM16 14.4698C16 15.7296 14.9712 17 12.4 17C9.8288 17 8.8 15.7345 8.8 14.4698V14.3864C8.8 13.593 9.4352 12.9517 10.2184 12.9517H14.5816C15.3656 12.9517 16 13.5938 16 14.3864V14.4698Z" fill="black"/>
</svg>
