<svg width="22" height="22" viewBox="0 0 22 22" fill="none" xmlns="http://www.w3.org/2000/svg">
<path d="M20.0062 6.134L19.5122 5.277C19.1392 4.629 18.9522 4.305 18.6352 4.177C18.3172 4.047 17.9582 4.149 17.2402 4.353L16.0202 4.696C15.5612 4.802 15.0802 4.742 14.6612 4.527L14.3242 4.333C13.965 4.10266 13.6888 3.76347 13.5362 3.365L13.2022 2.368C12.9822 1.708 12.8722 1.378 12.6122 1.188C12.3492 1 12.0012 1 11.3072 1H10.1932C9.49817 1 9.15117 1 8.89017 1.189C8.62817 1.378 8.51917 1.708 8.29917 2.368L7.96517 3.365C7.81249 3.76347 7.53637 4.10266 7.17717 4.333L6.84017 4.527C6.42129 4.74184 5.94006 4.80204 5.48117 4.697L4.26117 4.353C3.54317 4.149 3.18417 4.047 2.86617 4.176C2.54917 4.306 2.36217 4.629 1.98917 5.277L1.49517 6.134C1.14517 6.741 0.970167 7.044 1.00517 7.368C1.03817 7.691 1.27217 7.951 1.74117 8.472L2.77117 9.625C3.02417 9.944 3.20317 10.5 3.20317 11C3.20317 11.5 3.02317 12.056 2.77217 12.375L1.74117 13.528C1.27217 14.048 1.03817 14.309 1.00417 14.632C0.970167 14.955 1.14517 15.259 1.49517 15.866L1.98917 16.723C2.36217 17.371 2.54917 17.695 2.86617 17.823C3.18417 17.953 3.54317 17.851 4.26117 17.647L5.48117 17.304C5.94117 17.198 6.42117 17.258 6.84117 17.473L7.17717 17.667C7.53617 17.897 7.81217 18.237 7.96517 18.635L8.29917 19.632C8.51917 20.292 8.62917 20.622 8.88917 20.812C9.15117 21 9.49917 21 10.1932 21H11.3072C12.0022 21 12.3492 21 12.6102 20.811C12.8722 20.622 12.9822 20.293 13.2012 19.633L13.5352 18.635C13.6882 18.236 13.9642 17.897 14.3232 17.667L14.6602 17.473C15.079 17.2582 15.5603 17.198 16.0192 17.303L17.2392 17.647C17.9572 17.851 18.3162 17.953 18.6342 17.824C18.9512 17.694 19.1382 17.371 19.5112 16.723L20.0052 15.866C20.3552 15.259 20.5302 14.956 20.4952 14.632C20.4622 14.309 20.2282 14.049 19.7592 13.528L18.7292 12.375C18.4762 12.055 18.2972 11.5 18.2972 11C18.2972 10.5 18.4772 9.944 18.7282 9.625L19.7592 8.472C20.2282 7.952 20.4622 7.691 20.4962 7.368C20.5302 7.045 20.3562 6.741 20.0062 6.134Z" stroke="black" stroke-width="1.5" stroke-linecap="round"/>
<path d="M12.8134 10.5L13.3134 10C13.7544 9.55903 13.9754 9.33803 14.2644 9.43003C14.5544 9.52103 14.6004 9.78303 14.6914 10.307C14.7314 10.5324 14.7514 10.7634 14.7514 11C14.7517 11.6552 14.5911 12.3004 14.2836 12.8789C13.9762 13.4575 13.5314 13.9516 12.9882 14.318C12.4451 14.6844 11.8203 14.9117 11.1687 14.9801C10.5171 15.0485 9.85872 14.9557 9.25138 14.71M8.75138 11.535L8.20738 12.079C7.77338 12.513 7.55538 12.731 7.26938 12.644C6.98238 12.557 6.93138 12.3 6.82938 11.787C6.68708 11.0789 6.73916 10.3455 6.98008 9.66467C7.221 8.9838 7.64177 8.38086 8.19773 7.91985C8.7537 7.45884 9.42411 7.15695 10.1378 7.04624C10.8515 6.93553 11.5819 7.02012 12.2514 7.29103" stroke="black" stroke-width="1.5" stroke-linecap="round" stroke-linejoin="round"/>
</svg>
