<svg width="22" height="21" viewBox="0 0 22 21" fill="none" xmlns="http://www.w3.org/2000/svg">
<path d="M14.0009 20V15C14.0009 14.7348 13.8956 14.4804 13.708 14.2929C13.5205 14.1054 13.2661 14 13.0009 14H9.00093C8.73571 14 8.48136 14.1054 8.29382 14.2929C8.10629 14.4804 8.00093 14.7348 8.00093 15V20M16.7749 9.31C16.5665 9.11044 16.289 8.99904 16.0004 8.99904C15.7118 8.99904 15.4344 9.11044 15.2259 9.31C14.7609 9.75352 14.143 10.001 13.5004 10.001C12.8578 10.001 12.2399 9.75352 11.7749 9.31C11.5665 9.11073 11.2893 8.99952 11.0009 8.99952C10.7126 8.99952 10.4353 9.11073 10.2269 9.31C9.76189 9.75381 9.14376 10.0014 8.50093 10.0014C7.8581 10.0014 7.23997 9.75381 6.77493 9.31C6.56647 9.11044 6.28902 8.99904 6.00043 8.99904C5.71184 8.99904 5.43439 9.11044 5.22593 9.31C4.77677 9.73861 4.1842 9.98477 3.56356 10.0005C2.94291 10.0163 2.33859 9.80061 1.86823 9.39538C1.39787 8.99015 1.09513 8.42439 1.01891 7.80824C0.942702 7.19209 1.09848 6.56962 1.45593 6.062L4.34493 1.878C4.52824 1.60751 4.77502 1.38605 5.06371 1.233C5.35239 1.07994 5.67418 0.99994 6.00093 1H16.0009C16.3267 0.999875 16.6476 1.07934 16.9357 1.23149C17.2238 1.38364 17.4703 1.60386 17.6539 1.873L20.5489 6.065C20.9065 6.57303 21.062 7.19597 20.9854 7.81244C20.9087 8.42891 20.6052 8.99475 20.1341 9.39969C19.663 9.80463 19.058 10.0197 18.437 10.0029C17.816 9.98614 17.2235 9.73877 16.7749 9.309" stroke="black" stroke-width="2" stroke-linecap="round" stroke-linejoin="round"/>
<path d="M3 9.95001V18C3 18.5304 3.21071 19.0392 3.58579 19.4142C3.96086 19.7893 4.46957 20 5 20H17C17.5304 20 18.0391 19.7893 18.4142 19.4142C18.7893 19.0392 19 18.5304 19 18V9.95001" stroke="black" stroke-width="2" stroke-linecap="round" stroke-linejoin="round"/>
</svg>
