<svg width="16" height="16" viewBox="0 0 16 16" fill="none" xmlns="http://www.w3.org/2000/svg">
<path d="M5.66699 6.44431L8.20099 8.3452C8.35798 8.46294 8.55367 8.51698 8.74883 8.4965C8.944 8.47602 9.1242 8.38252 9.25333 8.23475L14.2225 2.55542" stroke="black" stroke-width="2" stroke-linecap="round"/>
<path d="M15 7.99987C15 9.4625 14.5419 10.8884 13.69 12.0773C12.838 13.2662 11.6351 14.1584 10.25 14.6285C8.86504 15.0987 7.36755 15.1232 5.9679 14.6985C4.56826 14.2739 3.33677 13.4216 2.44641 12.2612C1.55605 11.1008 1.05154 9.69062 1.00374 8.22877C0.955941 6.76692 1.36725 5.32681 2.17991 4.11072C2.99256 2.89463 4.16573 1.96364 5.53465 1.44851C6.90357 0.933381 8.39946 0.859992 9.81222 1.23865" stroke="black" stroke-width="2" stroke-linecap="round"/>
</svg>
